<svg width="40" height="43" viewBox="0 0 40 43" fill="none" xmlns="http://www.w3.org/2000/svg">
<circle cx="20" cy="20" r="20" fill="white"/>
<path d="M25 27C23.89 27 23 27.89 23 29C23 29.5304 23.2107 30.0391 23.5858 30.4142C23.9609 30.7893 24.4696 31 25 31C25.5304 31 26.0391 30.7893 26.4142 30.4142C26.7893 30.0391 27 29.5304 27 29C27 28.4696 26.7893 27.9609 26.4142 27.5858C26.0391 27.2107 25.5304 27 25 27ZM9 11V13H11L14.6 20.59L13.24 23.04C13.09 23.32 13 23.65 13 24C13 24.5304 13.2107 25.0391 13.5858 25.4142C13.9609 25.7893 14.4696 26 15 26H27V24H15.42C15.3537 24 15.2901 23.9737 15.2432 23.9268C15.1963 23.8799 15.17 23.8163 15.17 23.75C15.17 23.7 15.18 23.66 15.2 23.63L16.1 22H23.55C24.3 22 24.96 21.58 25.3 20.97L28.88 14.5C28.95 14.34 29 14.17 29 14C29 13.7348 28.8946 13.4804 28.7071 13.2929C28.5196 13.1054 28.2652 13 28 13H13.21L12.27 11M15 27C13.89 27 13 27.89 13 29C13 29.5304 13.2107 30.0391 13.5858 30.4142C13.9609 30.7893 14.4696 31 15 31C15.5304 31 16.0391 30.7893 16.4142 30.4142C16.7893 30.0391 17 29.5304 17 29C17 28.4696 16.7893 27.9609 16.4142 27.5858C16.0391 27.2107 15.5304 27 15 27Z" fill="#E22020"/>
<path d="M35.125 41.0994C34.59 41.0994 34.1342 40.9538 33.7578 40.6626C33.3814 40.3691 33.0938 39.9441 32.8949 39.3878C32.696 38.8291 32.5966 38.1544 32.5966 37.3636C32.5966 36.5777 32.696 35.9065 32.8949 35.3501C33.0961 34.7914 33.3849 34.3653 33.7614 34.0717C34.1402 33.7758 34.5947 33.6278 35.125 33.6278C35.6553 33.6278 36.1087 33.7758 36.4851 34.0717C36.8639 34.3653 37.1527 34.7914 37.3516 35.3501C37.5528 35.9065 37.6534 36.5777 37.6534 37.3636C37.6534 38.1544 37.554 38.8291 37.3551 39.3878C37.1562 39.9441 36.8686 40.3691 36.4922 40.6626C36.1158 40.9538 35.66 41.0994 35.125 41.0994ZM35.125 40.3182C35.6553 40.3182 36.0672 40.0625 36.3608 39.5511C36.6544 39.0398 36.8011 38.3106 36.8011 37.3636C36.8011 36.7339 36.7337 36.1977 36.5987 35.755C36.4661 35.3123 36.2744 34.9749 36.0234 34.7429C35.7749 34.5109 35.4754 34.3949 35.125 34.3949C34.5994 34.3949 34.1887 34.6541 33.8928 35.1726C33.5968 35.6887 33.4489 36.419 33.4489 37.3636C33.4489 37.9934 33.5152 38.5284 33.6477 38.9688C33.7803 39.4091 33.9709 39.7441 34.2195 39.9737C34.4704 40.2034 34.7723 40.3182 35.125 40.3182Z" fill="#E22020"/>
</svg>
