<svg width="40" height="40" viewBox="0 0 40 40" fill="none" xmlns="http://www.w3.org/2000/svg">
<circle cx="20" cy="20" r="20" fill="white"/>
<path d="M25 27C23.89 27 23 27.89 23 29C23 29.5304 23.2107 30.0391 23.5858 30.4142C23.9609 30.7893 24.4696 31 25 31C25.5304 31 26.0391 30.7893 26.4142 30.4142C26.7893 30.0391 27 29.5304 27 29C27 28.4696 26.7893 27.9609 26.4142 27.5858C26.0391 27.2107 25.5304 27 25 27ZM9 11V13H11L14.6 20.59L13.24 23.04C13.09 23.32 13 23.65 13 24C13 24.5304 13.2107 25.0391 13.5858 25.4142C13.9609 25.7893 14.4696 26 15 26H27V24H15.42C15.3537 24 15.2901 23.9737 15.2432 23.9268C15.1963 23.8799 15.17 23.8163 15.17 23.75C15.17 23.7 15.18 23.66 15.2 23.63L16.1 22H23.55C24.3 22 24.96 21.58 25.3 20.97L28.88 14.5C28.95 14.34 29 14.17 29 14C29 13.7348 28.8946 13.4804 28.7071 13.2929C28.5196 13.1054 28.2652 13 28 13H13.21L12.27 11M15 27C13.89 27 13 27.89 13 29C13 29.5304 13.2107 30.0391 13.5858 30.4142C13.9609 30.7893 14.4696 31 15 31C15.5304 31 16.0391 30.7893 16.4142 30.4142C16.7893 30.0391 17 29.5304 17 29C17 28.4696 16.7893 27.9609 16.4142 27.5858C16.0391 27.2107 15.5304 27 15 27Z" fill="#E22020"/>
</svg>
